<?xml version="1.0" encoding="UTF-8" standalone="no"?>
<svg width="58px" height="53px" viewBox="0 0 58 53" version="1.1" xmlns="http://www.w3.org/2000/svg" xmlns:xlink="http://www.w3.org/1999/xlink">
    <!-- Generator: Sketch 43.1 (39012) - http://www.bohemiancoding.com/sketch -->
    <title>logo</title>
    <desc>Created with Sketch.</desc>
    <defs></defs>
    <g id="Page-1" stroke="none" stroke-width="1" fill="none" fill-rule="evenodd">
        <g id="01-home" transform="translate(-144.000000, -43.000000)">
            <g id="logo" transform="translate(144.000000, 40.000000)">
                <rect id="mask" x="0" y="0" width="60" height="60"></rect>
                <path d="M9.20478578,43.6793059 L35.6793059,52.7952142 L44.7952142,26.3206941 L18.3206941,17.2047858 L9.20478578,43.6793059 Z M17.0807933,14.6626123 L47.3373877,25.0807933 L36.9192067,55.3373877 L6.66261232,44.9192067 L17.0807933,14.6626123 Z" id="Rectangle" fill="#FF0000" fill-rule="nonzero" style="mix-blend-mode: multiply;"></path>
                <path d="M41,49 C31.6111593,49 24,41.3888407 24,32 C24,22.6111593 31.6111593,15 41,15 C50.3888407,15 58,22.6111593 58,32 C58,41.3888407 50.3888407,49 41,49 Z M41,47 C49.2842712,47 56,40.2842712 56,32 C56,23.7157288 49.2842712,17 41,17 C32.7157288,17 26,23.7157288 26,32 C26,40.2842712 32.7157288,47 41,47 Z" id="Oval" fill="#0000FF" fill-rule="nonzero" style="mix-blend-mode: multiply;"></path>
                <path d="M3.98009785,38.1963914 L32.6345744,35.6894495 L15.8003943,8.28844389 L3.98009785,38.1963914 Z M36.0326397,37.399797 L0.930655576,40.4708227 L15.410622,3.83332577 L36.0326397,37.399797 Z" id="Triangle" fill="#008000" fill-rule="nonzero" style="mix-blend-mode: multiply;"></path>
            </g>
        </g>
    </g>
</svg>